<svg id="visual" viewBox="0 0 960 540" width="960" height="540" xmlns="http://www.w3.org/2000/svg" xmlns:xlink="http://www.w3.org/1999/xlink" version="1.1"><rect x="0" y="0" width="960" height="540" fill="#164863"></rect><path d="M0 310L42 314L83 341L125 338L167 321L209 333L250 329L292 343L334 326L376 308L417 304L459 337L501 336L543 304L584 326L626 325L668 341L710 309L751 343L793 330L835 330L877 333L918 331L960 314L960 541L918 541L877 541L835 541L793 541L751 541L710 541L668 541L626 541L584 541L543 541L501 541L459 541L417 541L376 541L334 541L292 541L250 541L209 541L167 541L125 541L83 541L42 541L0 541Z" fill="#427d9d"></path><path d="M0 345L42 325L83 321L125 345L167 352L209 359L250 323L292 323L334 330L376 337L417 347L459 351L501 325L543 326L584 321L626 331L668 342L710 356L751 353L793 337L835 353L877 358L918 322L960 358L960 541L918 541L877 541L835 541L793 541L751 541L710 541L668 541L626 541L584 541L543 541L501 541L459 541L417 541L376 541L334 541L292 541L250 541L209 541L167 541L125 541L83 541L42 541L0 541Z" fill="#4a83a1"></path><path d="M0 348L42 350L83 350L125 342L167 363L209 340L250 362L292 368L334 362L376 364L417 377L459 341L501 369L543 377L584 352L626 367L668 365L710 376L751 379L793 345L835 371L877 358L918 348L960 376L960 541L918 541L877 541L835 541L793 541L751 541L710 541L668 541L626 541L584 541L543 541L501 541L459 541L417 541L376 541L334 541L292 541L250 541L209 541L167 541L125 541L83 541L42 541L0 541Z" fill="#5289a5"></path><path d="M0 362L42 379L83 370L125 379L167 389L209 375L250 365L292 384L334 362L376 372L417 387L459 386L501 389L543 366L584 377L626 383L668 378L710 387L751 393L793 359L835 371L877 366L918 364L960 389L960 541L918 541L877 541L835 541L793 541L751 541L710 541L668 541L626 541L584 541L543 541L501 541L459 541L417 541L376 541L334 541L292 541L250 541L209 541L167 541L125 541L83 541L42 541L0 541Z" fill="#5a8ea8"></path><path d="M0 388L42 387L83 384L125 398L167 405L209 407L250 410L292 379L334 403L376 391L417 383L459 404L501 384L543 410L584 383L626 387L668 381L710 397L751 407L793 399L835 392L877 399L918 393L960 388L960 541L918 541L877 541L835 541L793 541L751 541L710 541L668 541L626 541L584 541L543 541L501 541L459 541L417 541L376 541L334 541L292 541L250 541L209 541L167 541L125 541L83 541L42 541L0 541Z" fill="#6294ac"></path><path d="M0 405L42 422L83 414L125 401L167 427L209 404L250 399L292 400L334 410L376 409L417 402L459 406L501 398L543 407L584 420L626 423L668 412L710 402L751 428L793 398L835 416L877 420L918 407L960 408L960 541L918 541L877 541L835 541L793 541L751 541L710 541L668 541L626 541L584 541L543 541L501 541L459 541L417 541L376 541L334 541L292 541L250 541L209 541L167 541L125 541L83 541L42 541L0 541Z" fill="#6a9ab0"></path><path d="M0 424L42 441L83 422L125 420L167 434L209 430L250 444L292 443L334 426L376 437L417 444L459 419L501 419L543 428L584 442L626 439L668 437L710 442L751 429L793 422L835 439L877 442L918 437L960 421L960 541L918 541L877 541L835 541L793 541L751 541L710 541L668 541L626 541L584 541L543 541L501 541L459 541L417 541L376 541L334 541L292 541L250 541L209 541L167 541L125 541L83 541L42 541L0 541Z" fill="#72a0b4"></path><path d="M0 447L42 436L83 447L125 445L167 446L209 451L250 441L292 454L334 442L376 448L417 453L459 458L501 460L543 435L584 443L626 457L668 439L710 444L751 451L793 446L835 449L877 456L918 447L960 444L960 541L918 541L877 541L835 541L793 541L751 541L710 541L668 541L626 541L584 541L543 541L501 541L459 541L417 541L376 541L334 541L292 541L250 541L209 541L167 541L125 541L83 541L42 541L0 541Z" fill="#7aa6b8"></path><path d="M0 468L42 468L83 467L125 467L167 458L209 466L250 469L292 457L334 472L376 473L417 460L459 476L501 466L543 467L584 476L626 459L668 455L710 467L751 472L793 477L835 471L877 467L918 458L960 455L960 541L918 541L877 541L835 541L793 541L751 541L710 541L668 541L626 541L584 541L543 541L501 541L459 541L417 541L376 541L334 541L292 541L250 541L209 541L167 541L125 541L83 541L42 541L0 541Z" fill="#82acbc"></path><path d="M0 482L42 481L83 482L125 475L167 483L209 483L250 481L292 481L334 486L376 478L417 478L459 478L501 487L543 493L584 493L626 491L668 479L710 489L751 488L793 483L835 491L877 474L918 473L960 476L960 541L918 541L877 541L835 541L793 541L751 541L710 541L668 541L626 541L584 541L543 541L501 541L459 541L417 541L376 541L334 541L292 541L250 541L209 541L167 541L125 541L83 541L42 541L0 541Z" fill="#8ab2c0"></path><path d="M0 509L42 497L83 501L125 493L167 507L209 510L250 504L292 505L334 504L376 510L417 506L459 500L501 498L543 507L584 505L626 500L668 498L710 500L751 497L793 495L835 501L877 499L918 507L960 504L960 541L918 541L877 541L835 541L793 541L751 541L710 541L668 541L626 541L584 541L543 541L501 541L459 541L417 541L376 541L334 541L292 541L250 541L209 541L167 541L125 541L83 541L42 541L0 541Z" fill="#93b8c4"></path><path d="M0 513L42 523L83 523L125 526L167 519L209 512L250 522L292 520L334 516L376 526L417 526L459 523L501 522L543 520L584 516L626 519L668 514L710 510L751 523L793 519L835 523L877 520L918 520L960 511L960 541L918 541L877 541L835 541L793 541L751 541L710 541L668 541L626 541L584 541L543 541L501 541L459 541L417 541L376 541L334 541L292 541L250 541L209 541L167 541L125 541L83 541L42 541L0 541Z" fill="#9bbec8"></path></svg>