<svg id="visual" viewBox="0 0 960 540" width="960" height="540" xmlns="http://www.w3.org/2000/svg" xmlns:xlink="http://www.w3.org/1999/xlink" version="1.1"><rect x="0" y="0" width="960" height="540" fill="#164863"></rect><defs><linearGradient id="grad1_0" x1="43.8%" y1="0%" x2="100%" y2="100%"><stop offset="14.444444444444446%" stop-color="#427d9d" stop-opacity="1"></stop><stop offset="85.55555555555554%" stop-color="#427d9d" stop-opacity="1"></stop></linearGradient></defs><defs><linearGradient id="grad1_1" x1="43.8%" y1="0%" x2="100%" y2="100%"><stop offset="14.444444444444446%" stop-color="#427d9d" stop-opacity="1"></stop><stop offset="85.55555555555554%" stop-color="#2c627f" stop-opacity="1"></stop></linearGradient></defs><defs><linearGradient id="grad1_2" x1="43.8%" y1="0%" x2="100%" y2="100%"><stop offset="14.444444444444446%" stop-color="#164863" stop-opacity="1"></stop><stop offset="85.55555555555554%" stop-color="#2c627f" stop-opacity="1"></stop></linearGradient></defs><defs><linearGradient id="grad2_0" x1="0%" y1="0%" x2="56.3%" y2="100%"><stop offset="14.444444444444446%" stop-color="#427d9d" stop-opacity="1"></stop><stop offset="85.55555555555554%" stop-color="#427d9d" stop-opacity="1"></stop></linearGradient></defs><defs><linearGradient id="grad2_1" x1="0%" y1="0%" x2="56.3%" y2="100%"><stop offset="14.444444444444446%" stop-color="#2c627f" stop-opacity="1"></stop><stop offset="85.55555555555554%" stop-color="#427d9d" stop-opacity="1"></stop></linearGradient></defs><defs><linearGradient id="grad2_2" x1="0%" y1="0%" x2="56.3%" y2="100%"><stop offset="14.444444444444446%" stop-color="#2c627f" stop-opacity="1"></stop><stop offset="85.55555555555554%" stop-color="#164863" stop-opacity="1"></stop></linearGradient></defs><g transform="translate(960, 0)"><path d="M0 459C-82.5 448.3 -165 437.5 -229.5 397.5C-294 357.5 -340.6 288.1 -375.9 217C-411.1 145.9 -435.1 72.9 -459 0L0 0Z" fill="#215571"></path><path d="M0 306C-55 298.8 -110 291.7 -153 265C-196 238.3 -227.1 192.1 -250.6 144.7C-274.1 97.2 -290 48.6 -306 0L0 0Z" fill="#376f8e"></path><path d="M0 153C-27.5 149.4 -55 145.8 -76.5 132.5C-98 119.2 -113.5 96 -125.3 72.3C-137 48.6 -145 24.3 -153 0L0 0Z" fill="#427d9d"></path></g><g transform="translate(0, 540)"><path d="M0 -459C89 -452 177.9 -445 229.5 -397.5C281.1 -350 295.3 -262 327.4 -189C359.4 -116 409.2 -58 459 0L0 0Z" fill="#215571"></path><path d="M0 -306C59.3 -301.3 118.6 -296.7 153 -265C187.4 -233.3 196.9 -174.7 218.2 -126C239.6 -77.3 272.8 -38.7 306 0L0 0Z" fill="#376f8e"></path><path d="M0 -153C29.7 -150.7 59.3 -148.3 76.5 -132.5C93.7 -116.7 98.4 -87.3 109.1 -63C119.8 -38.7 136.4 -19.3 153 0L0 0Z" fill="#427d9d"></path></g></svg>